<?xml version="1.0" encoding="utf-8"?>
<!-- Generator: Adobe Illustrator 16.0.0, SVG Export Plug-In . SVG Version: 6.00 Build 0)  -->
<!DOCTYPE svg PUBLIC "-//W3C//DTD SVG 1.1//EN" "http://www.w3.org/Graphics/SVG/1.1/DTD/svg11.dtd">
<svg version="1.1" id="Layer_1" xmlns="http://www.w3.org/2000/svg" xmlns:xlink="http://www.w3.org/1999/xlink" x="0px" y="0px"
	 width="950px" height="100px" viewBox="0 0 950 100" enable-background="new 0 0 950 100" xml:space="preserve">
<g id="Layer_1_1_">
	
		<linearGradient id="SVGID_1_" gradientUnits="userSpaceOnUse" x1="246.5" y1="-205" x2="1196" y2="-205" gradientTransform="matrix(1 0 0 -1 -246 -155)">
		<stop  offset="0.0241" style="stop-color:#8EC8E2"/>
		<stop  offset="1" style="stop-color:#85D2F5"/>
	</linearGradient>
	<rect x="0.5" fill="url(#SVGID_1_)" width="949.5" height="100"/>
</g>
<g id="Layer_2">
	<g>
		<path fill="#5B5C5C" d="M21.295,17.639l-2.75,1.853c-0.515-1.015-1.004-1.676-1.47-1.985c-0.485-0.353-1.111-0.529-1.877-0.529
			c-0.941,0-1.722,0.304-2.342,0.91c-0.621,0.596-0.932,1.346-0.932,2.25c0,1.247,0.815,2.25,2.445,3.011l2.241,1.042
			c1.823,0.838,3.157,1.861,4.001,3.069c0.844,1.208,1.266,2.688,1.266,4.442c0,2.349-0.688,4.291-2.066,5.823
			c-1.387,1.544-3.109,2.316-5.165,2.316c-1.95,0-3.56-0.656-4.831-1.969c-1.251-1.312-2.032-3.16-2.343-5.542l3.434-0.86
			c0.155,1.5,0.427,2.537,0.814,3.11c0.699,1.103,1.717,1.655,3.056,1.655c1.057,0,1.935-0.403,2.633-1.208
			c0.699-0.805,1.048-1.825,1.048-3.061c0-0.496-0.061-0.951-0.182-1.365s-0.311-0.794-0.567-1.142
			c-0.257-0.347-0.589-0.672-0.997-0.976c-0.407-0.303-0.893-0.593-1.455-0.868l-2.168-1.026c-3.075-1.478-4.612-3.64-4.612-6.485
			c0-1.919,0.645-3.524,1.935-4.814c1.29-1.301,2.896-1.952,4.816-1.952C17.818,13.338,19.84,14.772,21.295,17.639z"/>
		<path fill="#5B5C5C" d="M40.212,32.198H30.057c0.087,1.323,0.466,2.376,1.135,3.16c0.669,0.772,1.528,1.158,2.576,1.158
			c0.814,0,1.489-0.221,2.022-0.662c0.523-0.441,1.12-1.257,1.79-2.448l2.765,1.753c-0.427,0.827-0.878,1.536-1.354,2.126
			c-0.475,0.59-0.984,1.075-1.527,1.456c-0.543,0.38-1.13,0.659-1.761,0.835c-0.631,0.176-1.314,0.265-2.052,0.265
			c-2.115,0-3.812-0.772-5.092-2.316c-1.28-1.555-1.92-3.617-1.92-6.187c0-2.548,0.621-4.61,1.862-6.188
			c1.251-1.555,2.91-2.333,4.976-2.333c2.085,0,3.734,0.755,4.947,2.267c1.203,1.5,1.804,3.579,1.804,6.237L40.212,32.198z
			 M36.852,29.154c-0.456-1.985-1.557-2.978-3.303-2.978c-0.398,0-0.771,0.069-1.121,0.207c-0.349,0.138-0.667,0.337-0.953,0.596
			c-0.287,0.259-0.531,0.571-0.735,0.935c-0.204,0.364-0.359,0.778-0.466,1.241L36.852,29.154L36.852,29.154z"/>
		<path fill="#5B5C5C" d="M56.205,23.264h3.289v16.113h-3.289V37.69c-1.348,1.434-2.798,2.151-4.35,2.151
			c-1.959,0-3.58-0.805-4.86-2.416c-1.271-1.643-1.906-3.695-1.906-6.154c0-2.415,0.635-4.428,1.906-6.038s2.861-2.416,4.772-2.416
			c1.649,0,3.128,0.772,4.438,2.316V23.264z M48.436,31.271c0,1.544,0.364,2.802,1.091,3.772c0.747,0.982,1.688,1.473,2.823,1.473
			c1.212,0,2.192-0.474,2.939-1.423c0.747-0.981,1.121-2.228,1.121-3.739s-0.374-2.757-1.121-3.739
			c-0.747-0.96-1.717-1.439-2.91-1.439c-1.125,0-2.066,0.485-2.823,1.456C48.809,28.613,48.436,29.827,48.436,31.271z"/>
		<path fill="#5B5C5C" d="M65.592,23.264h3.289v1.489c1.145-1.291,2.435-1.936,3.87-1.936c1.649,0,2.934,0.59,3.856,1.77
			c0.795,1.004,1.193,2.642,1.193,4.914v9.876h-3.288v-9c0-1.588-0.194-2.686-0.582-3.292c-0.378-0.617-1.067-0.926-2.066-0.926
			c-1.086,0-1.857,0.408-2.313,1.224c-0.446,0.805-0.669,2.211-0.669,4.219v7.775h-3.289L65.592,23.264L65.592,23.264z"/>
	</g>
	<g>
		<path fill="#5B5C5C" d="M24.84,72.538c0,2.3-0.647,4-1.941,5.101c-1.51,1.269-4.062,1.9-7.656,1.9
			c-3.415,0-5.913-0.75-7.494-2.251C6.563,76.188,5.97,74.82,5.97,73.188v-8h7.494v8.094c0,0.369,0.157,0.662,0.474,0.88
			c0.316,0.219,0.698,0.327,1.144,0.327c0.521,0,0.912-0.102,1.172-0.301c0.26-0.201,0.391-0.504,0.391-0.905v-4.168
			c0-0.972-0.235-1.741-0.704-2.31c-1.265-1.205-2.62-2.529-4.064-3.969c-2.384-2.333-3.721-3.667-4.01-4.001
			c-1.265-1.5-1.896-2.899-1.896-4.2v-3.949c0-2.233,0.683-3.884,2.049-4.952c1.581-1.233,4.097-1.851,7.548-1.851
			c2.983,0,5.211,0.618,6.685,1.851c1.258,1.067,1.887,2.518,1.887,4.351v6.05h-7.494v-6.494c0-0.335-0.122-0.595-0.366-0.78
			c-0.243-0.184-0.552-0.277-0.927-0.277c-0.45,0-0.787,0.084-1.012,0.251c-0.225,0.168-0.337,0.437-0.337,0.806v3.272
			c0,1.142,0.542,2.248,1.626,3.321c1.516,1.435,2.943,2.783,4.28,4.051c1.734,1.668,2.854,2.834,3.359,3.501
			c1.047,1.366,1.571,2.8,1.571,4.3V72.538z"/>
		<path fill="#5B5C5C" d="M57.78,79.139h-7.494V56.439c0-0.869-0.431-1.304-1.294-1.304c-0.431,0-0.754,0.101-0.97,0.302
			s-0.323,0.519-0.323,0.951v22.75h-7.494v-22.75c0-0.867-0.431-1.303-1.294-1.303c-0.431,0-0.755,0.102-0.97,0.301
			c-0.216,0.201-0.324,0.518-0.324,0.951v22.801h-7.494V50.785h7.494v0.986c0.432-0.33,1.069-0.608,1.914-0.84
			c0.844-0.23,1.752-0.347,2.723-0.347c1.402,0,2.39,0.165,2.965,0.495c0.682,0.561,1.275,1.039,1.779,1.436
			c0.324-0.363,1.033-0.774,2.129-1.236c1.096-0.463,2.184-0.693,3.262-0.693c1.545,0,2.831,0.409,3.855,1.225
			c1.024,0.817,1.537,1.775,1.537,2.875v24.453H57.78z"/>
		<path fill="#5B5C5C" d="M70.665,49.235H63.17v-5.051h7.494L70.665,49.235L70.665,49.235z M70.665,79.139H63.17V50.785h7.494
			L70.665,79.139L70.665,79.139z"/>
		<path fill="#5B5C5C" d="M90.396,79.139h-4.744c-3.235,0-5.221-0.406-5.958-1.223c-0.737-0.814-1.105-2.688-1.105-5.614V55.036
			h-3.343v-4.251h3.343v-5.701h7.494v5.701h4.043v4.251h-4.043v17.252c0,0.833,0.305,1.417,0.917,1.75
			c0.431,0.233,1.096,0.351,1.995,0.351h1.402L90.396,79.139L90.396,79.139z"/>
		<path fill="#5B5C5C" d="M113.039,79.139h-7.494V56.286c0-0.866-0.431-1.302-1.294-1.302c-0.431,0-0.755,0.102-0.97,0.302
			c-0.216,0.2-0.324,0.517-0.324,0.95v22.902h-7.494V44.135h7.494v7.501c0.467-0.366,1.087-0.634,1.86-0.8
			c0.772-0.167,1.698-0.25,2.776-0.25c1.581,0,2.884,0.383,3.909,1.15c1.024,0.768,1.537,1.699,1.537,2.801V79.139z"/>
		<path fill="#5B5C5C" d="M124.736,47.635c0,1.368-0.45,2.55-1.348,3.551c-0.612,0.668-1.6,1.418-2.965,2.25l-1.509-1.149
			c0.424-0.399,0.725-0.716,0.902-0.95c0.602-0.732,0.938-1.433,1.008-2.1h-2.989v-5.101h6.901V47.635z"/>
		<path fill="#5B5C5C" d="M147.056,73.538c0,2.134-0.881,3.7-2.642,4.7c-1.509,0.867-3.594,1.301-6.254,1.301
			c-2.587,0-4.601-0.385-6.038-1.15c-1.761-0.933-2.642-2.467-2.642-4.601v-6.052h7.494v5.961c0,0.464,0.11,0.818,0.331,1.068
			c0.221,0.248,0.533,0.373,0.938,0.373c0.403,0,0.707-0.125,0.909-0.373c0.202-0.25,0.303-0.604,0.303-1.067v-2.187
			c0-1.921-0.503-3.162-1.509-3.726c-1.366-0.666-2.642-1.3-3.828-1.9c-1.762-0.899-2.948-1.708-3.559-2.425
			s-0.917-1.742-0.917-3.075v-3.801c0-2.133,0.844-3.7,2.534-4.7c1.473-0.865,3.54-1.3,6.2-1.3c2.588,0,4.583,0.383,5.984,1.149
			c1.689,0.935,2.534,2.469,2.534,4.602v5.602h-7.386v-5.551c0-0.434-0.121-0.775-0.361-1.025c-0.241-0.25-0.517-0.375-0.826-0.375
			c-0.345,0-0.637,0.117-0.878,0.351c-0.241,0.233-0.361,0.584-0.361,1.05v2.65c0,1.168,0.521,2.066,1.563,2.699l2.911,1.451
			c2.121,1.033,3.432,1.783,3.936,2.25c1.042,0.935,1.563,2.218,1.563,3.851L147.056,73.538L147.056,73.538z"/>
	</g>
	<g>
		<path fill="#5B5C5C" d="M158.998,53.914v0.208c0,0.286,0.01,0.583,0.028,0.892c0.019,0.31,0.047,0.633,0.085,0.971l-0.415,0.074
			c-0.076-0.588-0.333-1.047-0.772-1.375s-1.013-0.494-1.721-0.494c-0.943,0-1.671,0.312-2.184,0.936s-0.77,1.506-0.77,2.648
			c0,1.222,0.294,2.209,0.883,2.963c0.589,0.753,1.353,1.13,2.292,1.13c0.591,0,1.103-0.146,1.536-0.441
			c0.434-0.294,0.771-0.725,1.014-1.292l0.38,0.202c-0.121,0.267-0.231,0.536-0.33,0.812c-0.098,0.275-0.186,0.554-0.261,0.83
			c-0.409,0.2-0.825,0.353-1.25,0.453c-0.424,0.104-0.85,0.153-1.278,0.153c-1.257,0-2.275-0.42-3.053-1.259
			c-0.778-0.84-1.167-1.943-1.167-3.312c0-1.348,0.411-2.443,1.232-3.291c0.821-0.849,1.884-1.271,3.187-1.271
			c0.386,0,0.794,0.039,1.224,0.115C158.09,53.643,158.536,53.759,158.998,53.914z"/>
		<path fill="#5B5C5C" d="M163.799,56.191c0.799,0,1.46,0.289,1.985,0.867c0.525,0.578,0.787,1.295,0.787,2.147
			c0,0.938-0.276,1.729-0.829,2.373c-0.553,0.644-1.234,0.965-2.045,0.965c-0.81,0-1.476-0.294-1.997-0.882
			s-0.781-1.331-0.781-2.229c0-0.898,0.283-1.664,0.849-2.295S163.011,56.191,163.799,56.191z M163.651,56.836
			c-0.507,0-0.916,0.199-1.224,0.598c-0.309,0.397-0.463,0.935-0.463,1.607c0,0.861,0.171,1.561,0.514,2.096
			c0.343,0.535,0.789,0.803,1.337,0.803c0.53,0,0.954-0.213,1.27-0.638s0.475-1.003,0.475-1.733c0-0.801-0.179-1.455-0.537-1.967
			C164.665,57.092,164.208,56.836,163.651,56.836z"/>
		<path fill="#5B5C5C" d="M169.848,52.909c-0.022,0.76-0.036,1.748-0.04,2.965c-0.004,0.47-0.006,0.808-0.006,1.011l-0.011,1.256
			v0.949v1.281v0.502c0,0.47,0.048,0.768,0.145,0.893c0.096,0.123,0.279,0.187,0.548,0.187h0.131v0.429
			c-0.261-0.021-0.507-0.035-0.736-0.046c-0.229-0.01-0.431-0.017-0.604-0.017c-0.178,0-0.373,0.007-0.585,0.017
			c-0.212,0.011-0.434,0.024-0.665,0.046l-0.005-0.429c0.026,0,0.06,0.002,0.099,0.006c0.04,0.004,0.069,0.006,0.088,0.006
			c0.265,0,0.442-0.073,0.531-0.224c0.089-0.148,0.134-0.582,0.134-1.301v-0.455l0.022-4.605v-1.054
			c0-0.177-0.035-0.308-0.105-0.396s-0.175-0.132-0.315-0.132c-0.053,0-0.151,0.015-0.295,0.043
			c-0.019,0.005-0.032,0.007-0.04,0.007l-0.085-0.398c0.318-0.057,0.625-0.131,0.923-0.221S169.564,53.032,169.848,52.909z"/>
		<path fill="#5B5C5C" d="M174.013,52.909c-0.022,0.76-0.036,1.748-0.04,2.965c-0.004,0.47-0.006,0.808-0.006,1.011l-0.011,1.256
			v0.949v1.281v0.502c0,0.47,0.048,0.768,0.145,0.893c0.096,0.123,0.279,0.187,0.548,0.187h0.131v0.429
			c-0.261-0.021-0.507-0.035-0.736-0.046c-0.229-0.01-0.431-0.017-0.604-0.017c-0.178,0-0.373,0.007-0.585,0.017
			c-0.212,0.011-0.434,0.024-0.665,0.046l-0.005-0.429c0.026,0,0.06,0.002,0.099,0.006c0.04,0.004,0.069,0.006,0.088,0.006
			c0.265,0,0.442-0.073,0.531-0.224c0.089-0.148,0.134-0.582,0.134-1.301v-0.455l0.022-4.605v-1.054
			c0-0.177-0.035-0.308-0.105-0.396c-0.07-0.088-0.175-0.132-0.315-0.132c-0.053,0-0.151,0.015-0.295,0.043
			c-0.019,0.005-0.032,0.007-0.04,0.007l-0.085-0.398c0.318-0.057,0.625-0.131,0.923-0.221S173.729,53.032,174.013,52.909z"/>
		<path fill="#5B5C5C" d="M181.318,58.955h-2.772c-0.216,0-0.415,0.005-0.596,0.013c-0.181,0.009-0.35,0.021-0.505,0.037v0.228
			c0,0.8,0.171,1.418,0.514,1.854c0.342,0.438,0.826,0.656,1.451,0.656c0.276,0,0.549-0.052,0.818-0.15
			c0.269-0.1,0.555-0.256,0.857-0.469l0.222,0.394c-0.39,0.342-0.779,0.602-1.167,0.776c-0.388,0.175-0.771,0.265-1.15,0.265
			c-0.735,0-1.34-0.283-1.818-0.85c-0.477-0.564-0.715-1.291-0.715-2.178c0-0.943,0.25-1.735,0.75-2.377
			c0.5-0.641,1.109-0.963,1.829-0.963c0.67,0,1.204,0.242,1.602,0.725C181.034,57.396,181.261,58.077,181.318,58.955z
			 M180.267,58.312c-0.114-0.504-0.286-0.889-0.517-1.155s-0.508-0.4-0.83-0.4c-0.363,0-0.675,0.157-0.934,0.472
			c-0.26,0.314-0.429,0.739-0.508,1.273c0.75,0,1.339-0.014,1.769-0.043C179.677,58.432,180.017,58.382,180.267,58.312z"/>
		<path fill="#5B5C5C" d="M186.698,56.622c0.253,0,0.51-0.005,0.77-0.013c0.26-0.008,0.52-0.021,0.781-0.037l-0.028,0.613
			c-0.167-0.021-0.349-0.037-0.548-0.047c-0.199-0.011-0.429-0.016-0.69-0.016c0.178,0.146,0.313,0.325,0.406,0.536
			c0.093,0.21,0.139,0.442,0.139,0.694c0,0.551-0.213,1.024-0.639,1.422c-0.426,0.396-0.949,0.595-1.57,0.595
			c-0.064,0-0.155-0.006-0.272-0.017c-0.118-0.011-0.201-0.018-0.25-0.021c-0.102,0.073-0.199,0.149-0.29,0.229
			c-0.091,0.08-0.174,0.162-0.25,0.248c0.057,0.113,0.122,0.219,0.196,0.314c0.074,0.098,0.16,0.188,0.259,0.271
			c0.117,0,0.286-0.002,0.505-0.006c0.53-0.012,0.878-0.019,1.045-0.019c0.686,0,1.179,0.112,1.479,0.337
			c0.301,0.225,0.452,0.586,0.452,1.085c0,0.317-0.083,0.64-0.247,0.965c-0.165,0.324-0.396,0.621-0.696,0.892
			c-0.307,0.272-0.66,0.488-1.059,0.644c-0.4,0.155-0.796,0.231-1.19,0.231c-0.587,0-1.079-0.166-1.474-0.502
			c-0.395-0.334-0.593-0.74-0.593-1.219c0-0.277,0.082-0.551,0.247-0.818s0.453-0.582,0.866-0.945
			c-0.17-0.167-0.312-0.339-0.423-0.516c-0.111-0.176-0.202-0.366-0.27-0.575c0.137-0.14,0.286-0.271,0.449-0.396
			c0.163-0.125,0.343-0.248,0.54-0.371c-0.382-0.129-0.681-0.349-0.897-0.654c-0.216-0.307-0.324-0.661-0.324-1.065
			c0-0.633,0.217-1.168,0.65-1.604c0.434-0.438,0.976-0.655,1.627-0.655c0.239,0,0.462,0.034,0.67,0.103
			C186.275,56.374,186.485,56.479,186.698,56.622z M184.318,62.294c-0.186,0.226-0.322,0.429-0.409,0.612
			c-0.087,0.185-0.13,0.359-0.13,0.527c0,0.379,0.158,0.699,0.474,0.961s0.713,0.393,1.19,0.393c0.542,0,1.01-0.162,1.406-0.486
			s0.594-0.689,0.594-1.094c0-0.331-0.097-0.562-0.29-0.698c-0.193-0.135-0.564-0.202-1.113-0.202c-0.057,0-0.182-0.002-0.375-0.007
			c-0.193-0.004-0.356-0.006-0.489-0.006H184.318z M185.352,56.658c-0.405,0-0.72,0.135-0.943,0.404
			c-0.224,0.27-0.335,0.648-0.335,1.14c0,0.539,0.109,0.959,0.327,1.259c0.217,0.3,0.523,0.45,0.917,0.45
			c0.397,0,0.71-0.136,0.937-0.407c0.228-0.271,0.341-0.646,0.341-1.124c0-0.552-0.108-0.978-0.324-1.274
			S185.749,56.658,185.352,56.658z"/>
		<path fill="#5B5C5C" d="M194.531,58.955h-2.772c-0.216,0-0.415,0.005-0.596,0.013c-0.181,0.009-0.35,0.021-0.505,0.037v0.228
			c0,0.8,0.171,1.418,0.514,1.854c0.342,0.438,0.826,0.656,1.451,0.656c0.276,0,0.549-0.052,0.818-0.15
			c0.269-0.1,0.555-0.256,0.857-0.469l0.222,0.394c-0.39,0.342-0.779,0.602-1.167,0.776s-0.771,0.265-1.15,0.265
			c-0.735,0-1.34-0.283-1.818-0.85c-0.477-0.564-0.715-1.291-0.715-2.178c0-0.943,0.25-1.735,0.75-2.377
			c0.5-0.641,1.109-0.963,1.829-0.963c0.67,0,1.204,0.242,1.602,0.725C194.247,57.396,194.475,58.077,194.531,58.955z
			 M193.48,58.312c-0.114-0.504-0.286-0.889-0.517-1.155s-0.508-0.4-0.83-0.4c-0.363,0-0.675,0.157-0.934,0.472
			c-0.26,0.314-0.429,0.739-0.508,1.273c0.75,0,1.339-0.014,1.769-0.043C192.891,58.432,193.23,58.382,193.48,58.312z"/>
	</g>
	<g>
		<path fill="#5B5C5C" d="M155.271,73.691c0.799,0,1.46,0.289,1.985,0.867s0.787,1.295,0.787,2.147c0,0.938-0.276,1.729-0.829,2.373
			c-0.553,0.644-1.234,0.965-2.045,0.965c-0.81,0-1.476-0.294-1.997-0.882s-0.781-1.331-0.781-2.229
			c0-0.898,0.283-1.664,0.849-2.295C153.806,74.008,154.483,73.691,155.271,73.691z M155.123,74.336
			c-0.507,0-0.916,0.199-1.224,0.598c-0.309,0.397-0.463,0.935-0.463,1.607c0,0.861,0.171,1.561,0.514,2.096
			c0.343,0.535,0.789,0.803,1.337,0.803c0.53,0,0.954-0.213,1.27-0.638s0.475-1.003,0.475-1.733c0-0.801-0.179-1.455-0.537-1.967
			C156.137,74.592,155.679,74.336,155.123,74.336z"/>
		<path fill="#5B5C5C" d="M161.32,73.484l0.012,0.509h0.38c0.197,0,0.39-0.003,0.58-0.011c0.189-0.006,0.373-0.012,0.551-0.021
			c0,0.017-0.002,0.043-0.006,0.08c-0.011,0.263-0.017,0.442-0.017,0.545l-0.068-0.006c-0.526-0.028-0.911-0.043-1.153-0.043h-0.244
			c0,0.438-0.004,0.913-0.011,1.428c0,0.146,0,0.238,0,0.275c0,0.936,0.006,1.601,0.017,1.997c0.011,0.396,0.032,0.664,0.062,0.803
			c0.038,0.163,0.116,0.273,0.236,0.333c0.119,0.06,0.347,0.089,0.684,0.089v0.417c-0.371-0.024-0.657-0.041-0.857-0.049
			c-0.201-0.009-0.369-0.013-0.506-0.013c-0.121,0-0.278,0.004-0.471,0.013c-0.193,0.008-0.496,0.024-0.909,0.049v-0.417h0.147
			c0.261,0,0.438-0.085,0.528-0.257c0.09-0.172,0.136-0.545,0.136-1.121c0-0.11-0.002-0.332-0.005-0.665
			c-0.004-0.332-0.006-0.609-0.006-0.83c0-0.302-0.001-0.621-0.003-0.958s-0.005-0.692-0.008-1.069h-0.375
			c-0.008,0-0.058,0.004-0.15,0.011c-0.093,0.006-0.181,0.011-0.264,0.015v-0.453c0.163-0.008,0.309-0.031,0.437-0.072
			c0.129-0.041,0.246-0.102,0.353-0.179v-0.11c0-1.037,0.227-1.858,0.682-2.465c0.454-0.606,1.071-0.91,1.852-0.91
			c0.356,0,0.633,0.063,0.832,0.189c0.199,0.127,0.298,0.301,0.298,0.521c0,0.146-0.039,0.27-0.117,0.367
			c-0.078,0.099-0.171,0.146-0.281,0.146c-0.068,0-0.245-0.08-0.531-0.242c-0.286-0.16-0.52-0.24-0.702-0.24
			c-0.397,0-0.681,0.162-0.849,0.489c-0.168,0.326-0.253,0.906-0.253,1.739L161.32,73.484L161.32,73.484z"/>
		<path fill="#5B5C5C" d="M169.563,79.451h0.199c0.269,0,0.46-0.036,0.574-0.107c0.114-0.07,0.193-0.203,0.239-0.395
			c0.034-0.127,0.058-0.588,0.071-1.379c0.013-0.793,0.02-2.025,0.02-3.7v-1.954h-1.147c-0.557,0-0.933,0.081-1.127,0.242
			c-0.194,0.16-0.34,0.502-0.435,1.021l-0.369-0.087c0.072-0.354,0.127-0.704,0.165-1.048c0.038-0.343,0.057-0.68,0.057-1.011
			c0.113,0.077,0.344,0.133,0.69,0.165c0.347,0.033,0.953,0.05,1.82,0.05h1.386c1.151,0,1.892-0.017,2.224-0.046
			c0.331-0.031,0.563-0.087,0.696-0.169c0,0.041-0.002,0.104-0.006,0.192s-0.006,0.154-0.006,0.199c0,0.258,0.011,0.522,0.031,0.797
			c0.021,0.272,0.052,0.555,0.094,0.846l-0.358,0.072c-0.045-0.461-0.162-0.775-0.349-0.942c-0.188-0.169-0.582-0.263-1.184-0.282
			h-1.074c-0.004,0.232-0.007,0.562-0.011,0.986c-0.008,1.115-0.011,1.863-0.011,2.248c0,1.449,0.008,2.433,0.025,2.947
			c0.017,0.514,0.046,0.834,0.088,0.961c0.049,0.146,0.131,0.25,0.244,0.307c0.114,0.058,0.288,0.086,0.523,0.086h0.199v0.429
			c-0.314-0.017-0.611-0.028-0.889-0.037c-0.278-0.008-0.527-0.012-0.747-0.012c-0.193,0-0.431,0.004-0.713,0.012
			c-0.282,0.009-0.588,0.021-0.917,0.037v-0.429H169.563z"/>
		<path fill="#5B5C5C" d="M177.885,70.409c-0.015,0.687-0.028,1.387-0.04,2.102c-0.012,0.716-0.019,1.447-0.023,2.199
			c0.424-0.349,0.803-0.604,1.136-0.769c0.333-0.166,0.636-0.25,0.909-0.25c0.557,0,0.975,0.17,1.255,0.51
			c0.28,0.339,0.42,0.848,0.42,1.525c0,0.004-0.002,0.184-0.005,0.539c-0.004,0.354-0.006,0.711-0.006,1.065
			c0,0.149-0.002,0.34-0.005,0.565c-0.004,0.228-0.006,0.381-0.006,0.463c0,0.457,0.038,0.756,0.114,0.895
			c0.076,0.139,0.219,0.208,0.432,0.208c0.011,0,0.033-0.002,0.065-0.006c0.032-0.004,0.058-0.006,0.077-0.006v0.429
			c-0.344-0.023-0.604-0.041-0.778-0.049c-0.174-0.01-0.318-0.014-0.432-0.014c-0.182,0-0.378,0.007-0.588,0.017
			s-0.429,0.024-0.656,0.046l-0.005-0.429h0.085c0.485,0,0.733-0.478,0.744-1.435c0-0.053,0-0.094,0-0.121l0.011-1.317v-0.251
			c0-0.743-0.082-1.236-0.244-1.479c-0.163-0.244-0.443-0.365-0.841-0.365c-0.216,0-0.455,0.058-0.718,0.172
			c-0.263,0.113-0.573,0.297-0.929,0.546l-0.028,2.181c0,0.122-0.002,0.279-0.006,0.473c-0.004,0.19-0.005,0.323-0.005,0.396
			c0,0.507,0.038,0.836,0.113,0.986c0.076,0.15,0.222,0.227,0.438,0.227c0.015,0,0.039-0.002,0.071-0.006
			c0.032-0.004,0.058-0.006,0.077-0.006v0.429c-0.238-0.021-0.463-0.036-0.673-0.046c-0.21-0.01-0.393-0.016-0.548-0.016
			c-0.147,0-0.318,0.004-0.511,0.013c-0.193,0.008-0.445,0.022-0.756,0.043v-0.423c0.023,0,0.055,0.002,0.097,0.006
			s0.072,0.006,0.091,0.006c0.261,0,0.438-0.074,0.528-0.224c0.091-0.148,0.136-0.582,0.136-1.302v-0.453l0.023-4.606v-1.054
			c0-0.176-0.035-0.307-0.105-0.395c-0.07-0.089-0.175-0.133-0.315-0.133c-0.053,0-0.14,0.012-0.261,0.036
			c-0.03,0.009-0.051,0.013-0.062,0.013l-0.085-0.397c0.31-0.065,0.615-0.142,0.914-0.229
			C177.287,70.631,177.586,70.527,177.885,70.409z"/>
		<path fill="#5B5C5C" d="M185.486,73.619c-0.026,0.277-0.047,0.559-0.062,0.843c-0.015,0.283-0.026,0.585-0.034,0.903
			c0.307-0.584,0.59-1.006,0.849-1.262c0.259-0.258,0.527-0.387,0.804-0.387c0.216,0,0.386,0.062,0.511,0.188
			c0.125,0.123,0.188,0.293,0.188,0.505c0,0.151-0.041,0.28-0.122,0.39s-0.177,0.162-0.287,0.162c-0.068,0-0.173-0.04-0.315-0.119
			c-0.142-0.08-0.264-0.119-0.366-0.119c-0.197,0-0.394,0.092-0.591,0.278c-0.197,0.187-0.403,0.476-0.619,0.866v0.674
			c0,0.652,0.005,1.184,0.014,1.59c0.009,0.406,0.023,0.665,0.042,0.775c0.034,0.207,0.107,0.351,0.219,0.429
			c0.112,0.077,0.302,0.116,0.571,0.116h0.165v0.429c-0.295-0.024-0.559-0.043-0.79-0.055c-0.231-0.013-0.426-0.019-0.585-0.019
			c-0.22,0-0.446,0.006-0.679,0.019c-0.233,0.012-0.477,0.03-0.73,0.055v-0.429h0.13c0.276,0,0.464-0.071,0.562-0.215
			c0.098-0.144,0.147-0.477,0.147-0.998v-0.645v-1.99c0-0.44-0.028-0.726-0.085-0.852c-0.057-0.127-0.161-0.189-0.312-0.189
			c-0.03,0-0.062,0-0.097,0.002c-0.034,0.002-0.091,0.011-0.17,0.021l-0.068-0.38c0.269-0.063,0.545-0.146,0.829-0.245
			C184.89,73.864,185.183,73.75,185.486,73.619z"/>
		<path fill="#5B5C5C" d="M190.906,73.619c-0.004,0.154-0.01,0.376-0.017,0.662c-0.049,1.642-0.074,2.797-0.074,3.467v0.648
			c0,0.475,0.042,0.771,0.125,0.896c0.083,0.122,0.246,0.185,0.488,0.185c0.022,0,0.053-0.002,0.091-0.006
			c0.038-0.005,0.066-0.008,0.085-0.008v0.417c-0.322-0.024-0.582-0.041-0.778-0.049c-0.197-0.009-0.364-0.013-0.5-0.013
			c-0.121,0-0.275,0.004-0.463,0.013c-0.188,0.008-0.468,0.024-0.843,0.049v-0.429h0.142c0.469,0,0.706-0.498,0.71-1.495
			c0-0.144,0-0.255,0-0.337l0.022-1.514c0-0.109,0.002-0.248,0.006-0.416c0.003-0.168,0.005-0.279,0.005-0.338
			c0-0.33-0.029-0.549-0.088-0.654s-0.166-0.159-0.321-0.159c-0.03,0-0.075,0.003-0.133,0.01c-0.059,0.007-0.123,0.013-0.19,0.021
			l-0.057-0.385c0.299-0.062,0.597-0.14,0.895-0.232C190.308,73.855,190.606,73.746,190.906,73.619z M190.292,70.734l0.403,0.324
			c0.106,0.086,0.184,0.172,0.233,0.258c0.049,0.084,0.074,0.175,0.074,0.27c0,0.094-0.02,0.174-0.06,0.241
			s-0.114,0.146-0.224,0.235l-0.426,0.35l-0.397-0.337c-0.11-0.095-0.189-0.181-0.238-0.261c-0.049-0.08-0.074-0.164-0.074-0.254
			s0.019-0.168,0.057-0.235s0.115-0.148,0.233-0.242L190.292,70.734z"/>
		<path fill="#5B5C5C" d="M195.024,73.484l0.012,0.509h0.38c0.197,0,0.39-0.003,0.58-0.011c0.189-0.006,0.373-0.012,0.551-0.021
			c0,0.017-0.002,0.043-0.006,0.08c-0.011,0.263-0.017,0.442-0.017,0.545l-0.068-0.006c-0.526-0.028-0.911-0.043-1.153-0.043h-0.244
			c0,0.438-0.004,0.913-0.011,1.428c0,0.146,0,0.238,0,0.275c0,0.936,0.006,1.601,0.017,1.997c0.011,0.396,0.032,0.664,0.062,0.803
			c0.038,0.163,0.116,0.273,0.236,0.333c0.119,0.06,0.347,0.089,0.684,0.089v0.417c-0.371-0.024-0.657-0.041-0.857-0.049
			c-0.201-0.009-0.369-0.013-0.506-0.013c-0.121,0-0.278,0.004-0.471,0.013c-0.193,0.008-0.496,0.024-0.909,0.049v-0.417h0.147
			c0.261,0,0.438-0.085,0.528-0.257s0.136-0.545,0.136-1.121c0-0.11-0.002-0.332-0.005-0.665c-0.004-0.332-0.006-0.609-0.006-0.83
			c0-0.302-0.001-0.621-0.003-0.958s-0.005-0.692-0.008-1.069h-0.375c-0.008,0-0.058,0.004-0.15,0.011
			c-0.093,0.006-0.181,0.011-0.264,0.015v-0.453c0.163-0.008,0.309-0.031,0.437-0.072c0.129-0.041,0.246-0.102,0.353-0.179v-0.11
			c0-1.037,0.227-1.858,0.682-2.465c0.454-0.606,1.071-0.91,1.852-0.91c0.356,0,0.633,0.063,0.832,0.189
			c0.199,0.127,0.298,0.301,0.298,0.521c0,0.146-0.039,0.27-0.117,0.367c-0.078,0.099-0.171,0.146-0.281,0.146
			c-0.068,0-0.245-0.08-0.531-0.242c-0.286-0.16-0.52-0.24-0.702-0.24c-0.397,0-0.681,0.162-0.849,0.489
			c-0.168,0.326-0.253,0.906-0.253,1.739L195.024,73.484L195.024,73.484z"/>
		<path fill="#5B5C5C" d="M199.16,72.707l0.375,0.122c-0.023,0.226-0.041,0.426-0.054,0.604c-0.013,0.178-0.021,0.353-0.025,0.522
			h0.403c0.216,0,0.436-0.003,0.659-0.009c0.224-0.006,0.449-0.016,0.676-0.027l-0.137,0.667c-0.242-0.021-0.47-0.032-0.684-0.039
			s-0.427-0.01-0.639-0.01h-0.267c-0.022,0.702-0.039,1.239-0.048,1.614c-0.009,0.373-0.014,0.683-0.014,0.928
			c0,0.923,0.059,1.523,0.176,1.805c0.117,0.279,0.328,0.42,0.63,0.42c0.125,0,0.264-0.029,0.417-0.086
			c0.153-0.058,0.34-0.15,0.56-0.281l0.188,0.403c-0.364,0.237-0.693,0.416-0.988,0.536c-0.295,0.12-0.553,0.182-0.772,0.182
			c-0.405,0-0.701-0.15-0.886-0.451c-0.186-0.301-0.278-0.782-0.278-1.448c0-0.13,0.009-0.597,0.025-1.399
			c0.017-0.803,0.026-1.537,0.026-2.208c-0.034,0-0.083,0.003-0.148,0.007c-0.314,0.012-0.53,0.019-0.647,0.019v-0.441
			c0.371-0.057,0.678-0.204,0.92-0.444C198.869,73.451,199.047,73.123,199.16,72.707z"/>
		<path fill="#5B5C5C" d="M204.569,73.619c-0.004,0.154-0.01,0.376-0.017,0.662c-0.049,1.642-0.074,2.797-0.074,3.467v0.648
			c0,0.475,0.042,0.771,0.125,0.896c0.083,0.122,0.246,0.185,0.488,0.185c0.022,0,0.053-0.002,0.091-0.006
			c0.038-0.005,0.066-0.008,0.085-0.008v0.417c-0.322-0.024-0.582-0.041-0.778-0.049c-0.197-0.009-0.364-0.013-0.5-0.013
			c-0.121,0-0.275,0.004-0.463,0.013c-0.188,0.008-0.468,0.024-0.843,0.049v-0.429h0.142c0.469,0,0.706-0.498,0.71-1.495
			c0-0.144,0-0.255,0-0.337l0.022-1.514c0-0.109,0.002-0.248,0.006-0.416c0.003-0.168,0.005-0.279,0.005-0.338
			c0-0.33-0.029-0.549-0.088-0.654s-0.166-0.159-0.321-0.159c-0.03,0-0.075,0.003-0.133,0.01c-0.059,0.007-0.123,0.013-0.19,0.021
			l-0.057-0.385c0.299-0.062,0.597-0.14,0.895-0.232C203.971,73.855,204.27,73.746,204.569,73.619z M203.955,70.734l0.403,0.324
			c0.106,0.086,0.184,0.172,0.233,0.258c0.049,0.084,0.074,0.175,0.074,0.27c0,0.094-0.02,0.174-0.06,0.241
			s-0.114,0.146-0.224,0.235l-0.426,0.35l-0.397-0.337c-0.11-0.095-0.189-0.181-0.238-0.261c-0.049-0.08-0.074-0.164-0.074-0.254
			s0.019-0.168,0.057-0.235c0.038-0.067,0.115-0.148,0.233-0.242L203.955,70.734z"/>
		<path fill="#5B5C5C" d="M208.687,73.619l-0.068,1.029c0.428-0.336,0.8-0.578,1.116-0.729s0.606-0.228,0.872-0.228
			c0.557,0,0.975,0.17,1.255,0.509c0.28,0.339,0.42,0.848,0.42,1.524c0,0.004-0.002,0.185-0.006,0.539
			c-0.004,0.355-0.006,0.711-0.006,1.066c0,0.15-0.002,0.34-0.005,0.566c-0.004,0.227-0.006,0.381-0.006,0.461
			c0,0.459,0.038,0.757,0.114,0.896c0.076,0.14,0.219,0.208,0.432,0.208c0.011,0,0.033-0.002,0.065-0.006
			c0.032-0.004,0.056-0.006,0.071-0.006v0.429c-0.341-0.024-0.598-0.041-0.772-0.049c-0.174-0.009-0.32-0.013-0.438-0.013
			c-0.182,0-0.378,0.006-0.59,0.016s-0.428,0.025-0.648,0.046l-0.005-0.429h0.085c0.485,0,0.731-0.479,0.739-1.434
			c0.003-0.054,0.005-0.095,0.005-0.123l0.011-1.316v-0.221c0-0.756-0.081-1.258-0.244-1.504c-0.163-0.248-0.443-0.371-0.84-0.371
			c-0.22,0-0.463,0.057-0.73,0.168c-0.267,0.113-0.55,0.279-0.849,0.5c-0.015,0.425-0.026,0.826-0.034,1.203
			c-0.008,0.379-0.011,0.721-0.011,1.026v0.845c0,0.539,0.037,0.881,0.111,1.023c0.074,0.143,0.218,0.214,0.435,0.214
			c0.015,0,0.039-0.002,0.071-0.006c0.032-0.004,0.058-0.006,0.077-0.006v0.429c-0.326-0.023-0.582-0.041-0.77-0.049
			c-0.188-0.01-0.342-0.014-0.463-0.014c-0.114,0-0.263,0.004-0.449,0.014c-0.186,0.008-0.445,0.023-0.778,0.049l-0.005-0.429h0.108
			c0.473,0,0.711-0.496,0.715-1.488c0-0.147,0.002-0.262,0.006-0.344l0.011-1.501v-0.606c0-0.399-0.028-0.661-0.085-0.786
			s-0.161-0.188-0.312-0.188c-0.03,0-0.069,0.004-0.117,0.013c-0.047,0.009-0.097,0.021-0.15,0.036l-0.068-0.38
			c0.284-0.058,0.569-0.136,0.854-0.231S208.388,73.758,208.687,73.619z"/>
		<path fill="#5B5C5C" d="M218.327,74.122c0.253,0,0.51-0.005,0.77-0.013c0.26-0.008,0.52-0.021,0.781-0.037l-0.028,0.613
			c-0.167-0.021-0.349-0.037-0.548-0.047c-0.199-0.011-0.429-0.016-0.69-0.016c0.178,0.146,0.313,0.325,0.406,0.536
			c0.093,0.21,0.139,0.442,0.139,0.694c0,0.551-0.213,1.024-0.639,1.422c-0.426,0.396-0.949,0.595-1.57,0.595
			c-0.064,0-0.155-0.006-0.272-0.017c-0.118-0.011-0.201-0.018-0.25-0.021c-0.102,0.073-0.199,0.149-0.29,0.229
			c-0.091,0.08-0.174,0.162-0.25,0.248c0.057,0.113,0.122,0.219,0.196,0.314c0.074,0.098,0.16,0.188,0.259,0.271
			c0.117,0,0.286-0.002,0.505-0.006c0.53-0.012,0.878-0.019,1.045-0.019c0.686,0,1.179,0.112,1.479,0.337
			c0.301,0.225,0.452,0.586,0.452,1.085c0,0.317-0.083,0.64-0.247,0.965c-0.165,0.324-0.396,0.621-0.696,0.892
			c-0.307,0.272-0.66,0.488-1.059,0.644c-0.4,0.155-0.796,0.231-1.19,0.231c-0.587,0-1.079-0.166-1.474-0.502
			c-0.395-0.334-0.593-0.74-0.593-1.219c0-0.277,0.082-0.551,0.247-0.818s0.453-0.582,0.866-0.945
			c-0.17-0.167-0.312-0.339-0.423-0.516c-0.111-0.176-0.202-0.366-0.27-0.575c0.137-0.14,0.286-0.271,0.449-0.396
			s0.343-0.248,0.54-0.371c-0.382-0.129-0.681-0.349-0.897-0.654c-0.216-0.307-0.324-0.661-0.324-1.065
			c0-0.633,0.217-1.168,0.65-1.604c0.434-0.438,0.976-0.655,1.627-0.655c0.239,0,0.462,0.034,0.67,0.103
			C217.905,73.874,218.115,73.979,218.327,74.122z M215.947,79.794c-0.186,0.226-0.322,0.429-0.409,0.612
			c-0.087,0.185-0.13,0.359-0.13,0.527c0,0.379,0.158,0.699,0.474,0.961c0.316,0.262,0.713,0.393,1.19,0.393
			c0.542,0,1.01-0.162,1.406-0.486s0.594-0.689,0.594-1.094c0-0.331-0.097-0.562-0.29-0.698c-0.193-0.135-0.564-0.202-1.113-0.202
			c-0.057,0-0.182-0.002-0.375-0.007c-0.193-0.004-0.356-0.006-0.489-0.006H215.947z M216.981,74.158
			c-0.405,0-0.72,0.135-0.943,0.404c-0.224,0.27-0.335,0.648-0.335,1.14c0,0.539,0.109,0.959,0.327,1.259
			c0.217,0.3,0.523,0.45,0.917,0.45c0.397,0,0.71-0.136,0.937-0.407c0.228-0.271,0.341-0.646,0.341-1.124
			c0-0.552-0.108-0.978-0.324-1.274C217.685,74.309,217.378,74.158,216.981,74.158z"/>
	</g>
	<g>
		<path fill="#333333" d="M34.792,88.593h-0.445v-0.669h0.445V87.35c0-0.412,0.115-0.717,0.346-0.912
			c0.225-0.182,0.508-0.271,0.849-0.271h0.57v0.82h-0.504c-0.266-0.01-0.393,0.111-0.381,0.361v0.576h0.885v0.669h-0.885v3.677
			h-0.88V88.593z"/>
		<path fill="#333333" d="M37.505,90.092c0-0.458,0.038-0.811,0.114-1.057c0.079-0.24,0.2-0.443,0.363-0.608
			c0.121-0.145,0.291-0.272,0.507-0.387c0.214-0.108,0.489-0.166,0.824-0.171c0.347,0.006,0.627,0.062,0.841,0.172
			c0.211,0.113,0.375,0.244,0.49,0.389c0.174,0.166,0.298,0.367,0.371,0.607c0.07,0.246,0.105,0.598,0.105,1.055
			c0,0.458-0.035,0.809-0.105,1.047c-0.073,0.24-0.197,0.448-0.372,0.625c-0.056,0.063-0.125,0.127-0.207,0.188
			c-0.073,0.07-0.168,0.13-0.283,0.181c-0.214,0.119-0.494,0.183-0.84,0.188c-0.335-0.006-0.61-0.068-0.824-0.188
			c-0.217-0.108-0.386-0.231-0.507-0.368c-0.164-0.177-0.285-0.385-0.363-0.625C37.543,90.898,37.505,90.55,37.505,90.092z
			 M40.241,90.102c0-0.312-0.014-0.539-0.042-0.682c-0.028-0.137-0.086-0.258-0.173-0.361c-0.065-0.098-0.161-0.175-0.288-0.23
			c-0.122-0.059-0.263-0.088-0.423-0.088c-0.15,0-0.288,0.029-0.415,0.089c-0.122,0.056-0.22,0.133-0.296,0.229
			c-0.076,0.104-0.131,0.226-0.165,0.361c-0.034,0.143-0.051,0.367-0.051,0.672c0,0.303,0.017,0.524,0.051,0.664
			c0.034,0.143,0.089,0.27,0.165,0.378c0.076,0.084,0.175,0.158,0.296,0.224c0.127,0.062,0.265,0.093,0.415,0.093
			c0.161,0,0.302-0.031,0.423-0.093c0.127-0.064,0.223-0.14,0.288-0.224c0.087-0.108,0.145-0.235,0.173-0.378
			C40.227,90.616,40.241,90.396,40.241,90.102z"/>
		<path fill="#333333" d="M42.78,87.924h0.88v0.46h0.019c0.29-0.343,0.67-0.515,1.141-0.515c0.352,0.006,0.659,0.115,0.921,0.333
			l-0.643,0.756c-0.186-0.146-0.379-0.219-0.579-0.219c-0.226,0-0.419,0.073-0.58,0.218c-0.181,0.143-0.273,0.374-0.279,0.691v2.621
			h-0.88V87.924z"/>
		<path fill="#333333" d="M49.63,86.602h0.88v1.322h0.643v0.669H50.51v2.534c-0.006,0.221,0.099,0.328,0.313,0.322h0.33v0.82h-0.46
			c-0.309,0-0.562-0.096-0.759-0.285c-0.202-0.182-0.304-0.442-0.304-0.785v-2.606h-0.442v-0.669h0.442V86.602z"/>
		<path fill="#333333" d="M52.649,86.165h0.88v2.219h0.017c0.29-0.343,0.669-0.515,1.14-0.515c0.363,0,0.695,0.127,0.997,0.381
			c0.298,0.257,0.454,0.634,0.468,1.131v2.889h-0.88v-2.59c0-0.306-0.082-0.537-0.245-0.697c-0.161-0.162-0.368-0.242-0.621-0.242
			c-0.254,0-0.462,0.08-0.625,0.242c-0.167,0.16-0.25,0.393-0.25,0.697v2.59h-0.88L52.649,86.165L52.649,86.165z"/>
		<path fill="#333333" d="M58.7,90.427c0,0.351,0.102,0.614,0.305,0.796c0.188,0.186,0.437,0.276,0.744,0.276
			c0.358,0,0.678-0.142,0.959-0.423l0.639,0.54c-0.448,0.475-0.975,0.709-1.58,0.702c-0.231,0-0.456-0.032-0.676-0.1
			c-0.11-0.037-0.217-0.086-0.321-0.146c-0.11-0.053-0.213-0.118-0.309-0.196c-0.186-0.162-0.336-0.388-0.452-0.679
			c-0.127-0.278-0.19-0.643-0.19-1.088c0-0.432,0.055-0.787,0.165-1.072c0.11-0.29,0.25-0.52,0.422-0.688
			c0.174-0.17,0.37-0.293,0.587-0.367c0.214-0.076,0.425-0.113,0.634-0.113c0.501,0.006,0.925,0.169,1.271,0.49
			c0.352,0.326,0.531,0.774,0.537,1.348v0.72H58.7z M60.555,89.707c-0.011-0.339-0.103-0.596-0.275-0.77
			c-0.169-0.166-0.387-0.248-0.652-0.248c-0.266,0-0.483,0.082-0.652,0.248c-0.167,0.174-0.258,0.431-0.275,0.77H60.555z"/>
		<path fill="#333333" d="M65.878,86.602h0.88v1.322h0.643v0.669h-0.643v2.534c-0.006,0.221,0.099,0.328,0.313,0.322h0.33v0.82
			h-0.46c-0.309,0-0.562-0.096-0.759-0.285c-0.202-0.182-0.304-0.442-0.304-0.785v-2.606h-0.442v-0.669h0.442V86.602z"/>
		<path fill="#333333" d="M68.897,87.924h0.88v0.46h0.019c0.29-0.343,0.67-0.515,1.141-0.515c0.352,0.006,0.659,0.115,0.921,0.333
			l-0.643,0.756c-0.186-0.146-0.379-0.219-0.579-0.219c-0.226,0-0.419,0.073-0.58,0.218c-0.181,0.143-0.273,0.374-0.279,0.691v2.621
			h-0.88V87.924z"/>
		<path fill="#333333" d="M75.105,91.885h-0.017c-0.082,0.147-0.208,0.258-0.38,0.326c-0.169,0.072-0.402,0.107-0.701,0.107
			c-0.49-0.004-0.867-0.133-1.132-0.385c-0.279-0.244-0.418-0.56-0.418-0.941c0-0.365,0.121-0.668,0.363-0.908
			c0.242-0.245,0.597-0.371,1.064-0.377h1.22v-0.458c0.006-0.385-0.294-0.571-0.9-0.56c-0.22,0-0.393,0.021-0.52,0.066
			c-0.132,0.053-0.237,0.143-0.312,0.27l-0.693-0.523c0.334-0.434,0.829-0.645,1.481-0.633c0.552-0.006,0.992,0.098,1.321,0.311
			c0.33,0.217,0.497,0.592,0.502,1.121v2.969h-0.88v-0.385H75.105z M75.105,90.427h-1.058c-0.514,0.013-0.768,0.187-0.762,0.523
			c0,0.147,0.066,0.274,0.199,0.378c0.127,0.113,0.337,0.171,0.631,0.171c0.37,0.006,0.63-0.037,0.783-0.129
			c0.138-0.093,0.208-0.302,0.208-0.629L75.105,90.427L75.105,90.427z"/>
		<path fill="#333333" d="M80.323,91.814c-0.29,0.326-0.667,0.494-1.131,0.504c-0.285-0.004-0.521-0.064-0.709-0.18
			c-0.197-0.109-0.348-0.227-0.452-0.352c-0.115-0.143-0.198-0.316-0.249-0.523c-0.054-0.205-0.08-0.593-0.08-1.166
			c0-0.582,0.026-0.979,0.08-1.186c0.051-0.204,0.134-0.376,0.249-0.516c0.104-0.137,0.255-0.258,0.452-0.367
			c0.188-0.103,0.425-0.156,0.709-0.161c0.436,0,0.813,0.172,1.131,0.515v-0.46h0.88v4.241c-0.012,0.652-0.201,1.133-0.57,1.439
			c-0.371,0.315-0.816,0.474-1.333,0.474c-0.593-0.011-1.1-0.253-1.519-0.728l0.684-0.539c0.113,0.104,0.242,0.191,0.389,0.266
			c0.149,0.082,0.304,0.125,0.464,0.131c0.301,0,0.543-0.083,0.726-0.248c0.18-0.169,0.273-0.4,0.279-0.698V91.814z M78.582,90.102
			c0,0.332,0.012,0.562,0.034,0.688c0.02,0.131,0.066,0.239,0.139,0.327c0.059,0.078,0.149,0.15,0.271,0.215
			c0.116,0.078,0.259,0.117,0.431,0.117s0.316-0.039,0.431-0.117c0.116-0.064,0.203-0.137,0.262-0.215
			c0.073-0.088,0.123-0.196,0.148-0.327c0.017-0.126,0.025-0.356,0.025-0.688c0-0.34-0.009-0.574-0.025-0.707
			c-0.025-0.131-0.075-0.236-0.148-0.318c-0.059-0.078-0.146-0.155-0.262-0.23c-0.115-0.063-0.259-0.1-0.431-0.104
			c-0.172,0.006-0.315,0.041-0.431,0.104c-0.121,0.075-0.211,0.152-0.271,0.23c-0.073,0.082-0.12,0.188-0.139,0.318
			C78.593,89.525,78.582,89.762,78.582,90.102z"/>
		<path fill="#333333" d="M83.111,86.165h0.88v0.87h-0.88V86.165z M83.111,87.924h0.88v4.346h-0.88V87.924z"/>
		<path fill="#333333" d="M89.044,91.57c-0.192,0.217-0.417,0.393-0.677,0.527c-0.259,0.143-0.559,0.217-0.9,0.221
			c-0.518,0-0.972-0.174-1.363-0.521c-0.405-0.35-0.613-0.915-0.625-1.695c0.011-0.791,0.22-1.362,0.625-1.718
			c0.391-0.349,0.846-0.521,1.364-0.515c0.341,0.006,0.641,0.074,0.899,0.209c0.259,0.136,0.484,0.318,0.676,0.547l-0.651,0.572
			c-0.223-0.295-0.52-0.446-0.892-0.459c-0.75-0.01-1.13,0.443-1.141,1.361c0.011,0.914,0.392,1.362,1.141,1.35
			c0.372-0.006,0.669-0.157,0.891-0.454L89.044,91.57z"/>
		<path fill="#333333" d="M92.675,91.885h-0.017c-0.082,0.147-0.208,0.258-0.38,0.326c-0.169,0.072-0.402,0.107-0.701,0.107
			c-0.49-0.004-0.867-0.133-1.132-0.385c-0.279-0.244-0.418-0.56-0.418-0.941c0-0.365,0.121-0.668,0.363-0.908
			c0.242-0.245,0.597-0.371,1.064-0.377h1.22v-0.458c0.006-0.385-0.294-0.571-0.9-0.56c-0.22,0-0.393,0.021-0.52,0.066
			c-0.132,0.053-0.237,0.143-0.312,0.27l-0.693-0.523c0.334-0.434,0.829-0.645,1.481-0.633c0.552-0.006,0.992,0.098,1.321,0.311
			c0.33,0.217,0.497,0.592,0.502,1.121v2.969h-0.88v-0.385H92.675z M92.675,90.427h-1.058c-0.514,0.013-0.768,0.187-0.762,0.523
			c0,0.147,0.066,0.274,0.199,0.378c0.127,0.113,0.337,0.171,0.631,0.171c0.37,0.006,0.63-0.037,0.783-0.129
			c0.138-0.093,0.208-0.302,0.208-0.629L92.675,90.427L92.675,90.427z"/>
		<path fill="#333333" d="M95.428,86.165h0.88v4.985c0,0.199,0.11,0.299,0.331,0.299h0.305v0.82h-0.393
			c-0.321,0-0.585-0.08-0.793-0.237c-0.22-0.162-0.33-0.433-0.33-0.813V86.165z"/>
		<path fill="#333333" d="M98.321,86.165h0.88v4.985c0,0.199,0.11,0.299,0.331,0.299h0.305v0.82h-0.393
			c-0.321,0-0.585-0.08-0.793-0.237c-0.22-0.162-0.33-0.433-0.33-0.813V86.165z"/>
		<path fill="#333333" d="M100.582,87.924h0.933l1.039,3.044h0.017l1.034-3.044h0.938l-1.887,5.246
			c-0.121,0.326-0.289,0.553-0.502,0.678c-0.217,0.12-0.461,0.182-0.734,0.182h-0.292v-0.82h0.258c0.115,0,0.222-0.031,0.321-0.093
			c0.098-0.064,0.167-0.159,0.207-0.285l0.241-0.729L100.582,87.924z"/>
		<path fill="#333333" d="M108.5,86.165h0.88v2.219h0.017c0.29-0.343,0.669-0.515,1.14-0.515c0.363,0,0.695,0.127,0.997,0.381
			c0.298,0.257,0.454,0.634,0.468,1.131v2.889h-0.88v-2.59c0-0.306-0.082-0.537-0.245-0.697c-0.161-0.162-0.368-0.242-0.621-0.242
			c-0.254,0-0.462,0.08-0.625,0.242c-0.167,0.16-0.25,0.393-0.25,0.697v2.59h-0.88L108.5,86.165L108.5,86.165z"/>
		<path fill="#333333" d="M113.915,86.165h0.88v0.87h-0.88V86.165z M113.915,87.924h0.88v4.346h-0.88V87.924z"/>
		<path fill="#333333" d="M116.62,87.924h0.88v0.452c0.293-0.324,0.67-0.493,1.132-0.507c0.538,0.014,0.931,0.203,1.178,0.568
			c0.121,0.138,0.204,0.316,0.249,0.541c0.042,0.221,0.063,0.595,0.063,1.121c0,0.515-0.021,0.883-0.063,1.105
			c-0.045,0.225-0.128,0.406-0.249,0.549c-0.121,0.167-0.28,0.301-0.478,0.401c-0.194,0.104-0.428,0.157-0.701,0.163
			c-0.225,0-0.426-0.049-0.604-0.146c-0.191-0.089-0.367-0.211-0.528-0.365v2.221h-0.88L116.62,87.924L116.62,87.924z
			 M118.367,91.449c0.208,0,0.373-0.039,0.494-0.117c0.121-0.082,0.208-0.186,0.258-0.312c0.057-0.131,0.095-0.276,0.114-0.437
			c0.005-0.157,0.008-0.317,0.008-0.483c0-0.174-0.003-0.343-0.008-0.509c-0.02-0.165-0.058-0.312-0.114-0.437
			c-0.05-0.133-0.137-0.235-0.258-0.312c-0.121-0.069-0.286-0.104-0.494-0.104c-0.197,0-0.354,0.041-0.469,0.121
			c-0.121,0.082-0.21,0.188-0.267,0.32c-0.053,0.131-0.088,0.273-0.105,0.428c-0.017,0.162-0.025,0.326-0.025,0.492
			c0,0.153,0.008,0.309,0.025,0.461c0.017,0.164,0.052,0.311,0.105,0.441c0.057,0.132,0.146,0.238,0.267,0.318
			C118.013,91.407,118.169,91.449,118.367,91.449z"/>
	</g>
	<line fill="none" stroke="#FFFFFF" stroke-linecap="round" stroke-miterlimit="10" x1="125.5" y1="87.182" x2="951" y2="87.182"/>
	<line fill="none" stroke="#FFFFFF" stroke-linecap="round" stroke-miterlimit="10" x1="125.5" y1="89.881" x2="951" y2="89.881"/>
	
		<line fill="none" stroke="#FFFFFF" stroke-linecap="round" stroke-miterlimit="10" x1="-88.461" y1="87.182" x2="28.539" y2="87.182"/>
	
		<line fill="none" stroke="#FFFFFF" stroke-linecap="round" stroke-miterlimit="10" x1="-88.461" y1="89.881" x2="28.539" y2="89.881"/>
</g>
</svg>
